<?xml version="1.0" standalone="no"?>
<!DOCTYPE svg PUBLIC "-//W3C//DTD SVG 20010904//EN"
 "http://www.w3.org/TR/2001/REC-SVG-20010904/DTD/svg10.dtd">
<svg version="1.0" xmlns="http://www.w3.org/2000/svg"
 width="800.000000pt" height="500.000000pt" viewBox="0 0 800.000000 500.000000"
 preserveAspectRatio="xMidYMid meet">

<g transform="translate(0.000000,500.000000) scale(0.100000,-0.100000)"
fill="#000000" stroke="none">
<path d="M2790 1135 c0 -38 -3 -45 -19 -45 -45 0 -118 -131 -94 -168 23 -37
60 -24 95 33 l18 30 0 -37 c0 -27 4 -38 15 -38 13 0 15 22 15 135 0 113 -2
135 -15 135 -11 0 -15 -12 -15 -45z m-33 -150 c-27 -55 -57 -73 -57 -34 0 42
56 117 74 99 7 -7 1 -28 -17 -65z"/>
<path d="M3620 1135 c0 -38 -3 -45 -19 -45 -45 0 -118 -131 -94 -168 23 -37
60 -24 95 33 l18 30 0 -37 c0 -27 4 -38 15 -38 13 0 15 22 15 135 0 113 -2
135 -15 135 -11 0 -15 -12 -15 -45z m-33 -150 c-27 -55 -57 -73 -57 -34 0 42
56 117 74 99 7 -7 1 -28 -17 -65z"/>
<path d="M6157 1163 c-4 -3 -7 -62 -7 -130 0 -92 3 -123 13 -123 9 0 13 34 15
130 3 118 -2 143 -21 123z"/>
<path d="M6423 1049 c4 -101 8 -123 24 -134 25 -20 28 -19 72 20 64 58 82 136
33 143 -17 3 -35 -8 -63 -38 l-39 -41 0 86 c0 72 -2 85 -16 85 -15 0 -16 -13
-11 -121z m127 -20 c0 -21 -76 -107 -86 -97 -8 9 22 74 45 97 27 27 41 27 41
0z"/>
<path d="M6627 1163 c-4 -3 -7 -62 -7 -130 0 -92 3 -123 13 -123 9 0 13 34 15
130 3 118 -2 143 -21 123z"/>
<path d="M863 1140 c-55 -24 -74 -61 -48 -90 10 -11 22 -20 27 -20 5 0 32 -10
59 -21 53 -23 62 -44 32 -74 -13 -13 -27 -16 -60 -11 -33 4 -43 2 -43 -9 0
-33 95 -30 131 6 21 21 25 71 7 86 -7 6 -31 16 -53 23 -58 18 -85 37 -78 55 8
23 60 47 99 47 23 0 34 5 34 14 0 20 -57 17 -107 -6z"/>
<path d="M2234 1148 c-4 -5 0 -14 7 -19 20 -13 29 -11 29 5 0 18 -27 29 -36
14z"/>
<path d="M4314 1148 c-4 -5 0 -14 7 -19 20 -13 29 -11 29 5 0 18 -27 29 -36
14z"/>
<path d="M6044 1148 c-4 -5 0 -14 7 -19 20 -13 29 -11 29 5 0 18 -27 29 -36
14z"/>
<path d="M7110 1125 c-5 -14 -13 -37 -16 -50 -10 -41 -30 -50 -48 -21 -9 14
-23 37 -31 51 -17 27 -35 33 -35 12 0 -28 59 -107 80 -107 16 0 20 -5 16 -17
-3 -10 -8 -35 -12 -56 -6 -35 -4 -39 12 -35 15 3 20 16 26 63 3 33 13 80 22
105 9 25 16 53 16 63 0 26 -19 21 -30 -8z"/>
<path d="M4082 1128 c-6 -7 -12 -29 -14 -48 -3 -30 -7 -36 -32 -40 -38 -6 -34
-26 4 -22 32 3 37 -6 42 -77 2 -19 9 -37 17 -39 12 -4 13 7 8 60 l-6 65 41 9
c23 5 43 15 46 23 5 14 -11 12 -71 -5 -16 -5 -18 -1 -16 35 4 45 -3 58 -19 39z"/>
<path d="M5182 1128 c-6 -7 -12 -29 -14 -48 -3 -30 -7 -36 -32 -40 -38 -6 -34
-26 4 -22 32 3 37 -6 42 -77 2 -19 9 -37 17 -39 12 -4 13 7 8 60 l-6 65 41 9
c23 5 43 15 46 23 5 14 -11 12 -71 -5 -16 -5 -18 -1 -16 35 4 45 -3 58 -19 39z"/>
<path d="M5502 1128 c-5 -7 -17 -38 -26 -69 -14 -50 -19 -57 -46 -62 -36 -8
-40 -27 -6 -27 25 0 25 -1 10 -35 -7 -19 -14 -44 -14 -56 0 -37 23 -15 42 41
22 65 23 66 69 73 l37 5 11 -59 c11 -54 22 -71 35 -51 2 4 0 29 -6 56 -7 34
-7 51 1 59 16 16 14 24 -8 30 -10 2 -21 17 -25 33 -15 62 -50 91 -74 62z m48
-64 c14 -41 14 -42 -28 -50 l-32 -6 15 48 c8 27 15 50 15 52 0 14 21 -15 30
-44z"/>
<path d="M7412 1128 c-6 -7 -12 -29 -14 -48 -3 -30 -7 -36 -32 -40 -38 -6 -34
-26 4 -22 32 3 37 -6 42 -77 2 -19 9 -37 17 -39 12 -4 13 7 8 60 l-6 65 41 9
c23 5 43 15 46 23 5 14 -11 12 -71 -5 -16 -5 -18 -1 -16 35 4 45 -3 58 -19 39z"/>
<path d="M1904 1118 c-3 -5 -19 -8 -35 -8 -38 0 -34 -24 4 -28 23 -3 27 -8 27
-37 0 -19 -5 -37 -10 -40 -6 -4 -4 -12 5 -21 10 -10 15 -35 15 -70 0 -41 4
-54 15 -54 12 0 15 14 15 70 l0 70 40 6 c22 4 48 13 57 21 16 13 13 14 -27 9
-25 -3 -54 -8 -63 -12 -14 -5 -17 0 -17 30 0 38 7 43 79 48 19 2 36 9 39 15 3
10 -15 12 -68 10 -40 -1 -74 -5 -76 -9z"/>
<path d="M4855 1120 c-3 -5 -3 -44 0 -87 7 -88 12 -89 -69 16 -26 34 -52 59
-56 54 -12 -13 -17 -187 -5 -193 6 -3 11 16 13 45 5 103 7 104 69 20 31 -41
62 -75 70 -75 10 0 13 19 13 78 0 121 -14 176 -35 142z"/>
<path d="M3010 1108 c-41 -12 -62 -27 -54 -39 3 -5 18 -2 34 6 16 8 31 15 35
15 3 0 5 -45 5 -100 0 -82 3 -100 15 -100 12 0 15 13 15 55 0 51 2 56 28 66
37 14 72 48 72 70 0 37 -72 49 -150 27z m104 -14 c25 -10 19 -32 -14 -49 -39
-20 -40 -20 -40 20 0 36 15 44 54 29z"/>
<path d="M5790 1079 c-11 -19 -28 -59 -37 -89 l-16 -55 -33 73 c-32 70 -55 89
-68 57 -3 -8 -1 -15 5 -15 6 0 28 -39 50 -86 22 -48 45 -84 51 -82 7 3 19 33
28 69 8 36 26 82 38 103 30 51 13 74 -18 25z"/>
<path d="M1239 1059 l-29 -31 0 26 c0 16 -6 26 -15 26 -12 0 -15 -14 -15 -67
0 -38 3 -78 6 -91 9 -31 30 -22 26 11 -3 27 42 127 56 127 4 0 13 -5 19 -11
16 -16 28 8 13 26 -18 22 -29 19 -61 -16z"/>
<path d="M1399 1059 l-29 -31 0 26 c0 16 -6 26 -15 26 -12 0 -15 -14 -15 -67
0 -38 3 -78 6 -91 9 -31 30 -22 26 11 -3 27 42 127 56 127 4 0 13 -5 19 -11
16 -16 28 8 13 26 -18 22 -29 19 -61 -16z"/>
<path d="M2139 1059 l-29 -31 0 26 c0 16 -6 26 -15 26 -12 0 -15 -14 -15 -67
0 -38 3 -78 6 -91 9 -31 30 -22 26 11 -3 27 42 127 56 127 4 0 13 -5 19 -11
16 -16 28 8 13 26 -18 22 -29 19 -61 -16z"/>
<path d="M2247 1083 c-11 -18 7 -176 21 -181 11 -3 12 14 6 84 -6 85 -15 116
-27 97z"/>
<path d="M2393 1080 c-35 -14 -64 -69 -61 -115 2 -31 9 -43 31 -55 24 -13 30
-13 54 0 30 17 70 77 58 88 -4 4 -12 -2 -19 -12 -38 -64 -89 -75 -94 -19 -3
27 1 32 25 37 15 4 39 15 53 26 20 16 23 22 14 37 -13 21 -31 25 -61 13z m28
-34 c-6 -8 -20 -16 -31 -19 -17 -4 -18 -2 -9 14 5 10 19 19 31 19 16 0 18 -3
9 -14z"/>
<path d="M3249 1059 l-29 -31 0 26 c0 16 -6 26 -15 26 -12 0 -15 -14 -15 -67
0 -38 3 -78 6 -91 9 -31 30 -22 26 11 -3 27 42 127 56 127 4 0 13 -5 19 -11
16 -16 28 8 13 26 -18 22 -29 19 -61 -16z"/>
<path d="M3917 1072 c-42 -46 -60 -139 -32 -162 20 -17 49 -5 85 37 40 45 30
57 -13 15 -18 -18 -38 -32 -45 -32 -18 0 -14 46 8 90 22 43 40 59 40 36 0 -9
5 -16 10 -16 6 0 10 11 10 25 0 20 -5 25 -23 25 -13 0 -31 -8 -40 -18z"/>
<path d="M4327 1083 c-11 -18 7 -176 21 -181 11 -3 12 14 6 84 -6 85 -15 116
-27 97z"/>
<path d="M4453 1076 c-39 -18 -59 -51 -42 -72 6 -8 17 -14 23 -14 31 0 86 -23
86 -35 0 -19 -37 -38 -61 -32 -19 5 -44 -15 -32 -26 21 -21 108 13 119 46 7
22 -25 57 -51 57 -8 0 -26 5 -40 10 -23 9 -25 13 -15 25 7 8 25 18 41 23 30 7
40 25 17 29 -7 1 -27 -4 -45 -11z"/>
<path d="M5916 1050 c-44 -41 -76 -93 -76 -124 0 -45 78 -23 115 32 l24 35 3
-43 c5 -67 28 -64 28 3 0 77 -10 116 -31 128 -15 8 -27 2 -63 -31z m54 -13 c0
-27 -64 -107 -86 -107 -19 0 -18 9 7 50 25 41 59 80 71 80 4 0 8 -10 8 -23z"/>
<path d="M6057 1083 c-11 -18 7 -176 21 -181 11 -3 12 14 6 84 -6 85 -15 116
-27 97z"/>
<path d="M6286 1050 c-44 -41 -76 -93 -76 -124 0 -45 78 -23 115 32 l24 35 3
-43 c5 -67 28 -64 28 3 0 77 -10 116 -31 128 -15 8 -27 2 -63 -31z m54 -13 c0
-27 -64 -107 -86 -107 -19 0 -18 9 7 50 25 41 59 80 71 80 4 0 8 -10 8 -23z"/>
<path d="M6763 1080 c-35 -14 -64 -69 -61 -115 2 -31 9 -43 31 -55 24 -13 30
-13 54 0 30 17 70 77 58 88 -4 4 -12 -2 -19 -12 -38 -64 -89 -75 -94 -19 -3
27 1 32 25 37 15 4 39 15 53 26 20 16 23 22 14 37 -13 21 -31 25 -61 13z m28
-34 c-6 -8 -20 -16 -31 -19 -17 -4 -18 -2 -9 14 5 10 19 19 31 19 16 0 18 -3
9 -14z"/>
<path d="M7233 1080 c-35 -14 -64 -69 -61 -115 2 -31 9 -43 31 -55 24 -13 30
-13 54 0 30 17 70 77 58 88 -4 4 -12 -2 -19 -12 -38 -64 -89 -75 -94 -19 -3
27 1 32 25 37 15 4 39 15 53 26 20 16 23 22 14 37 -13 21 -31 25 -61 13z m28
-34 c-6 -8 -20 -16 -31 -19 -17 -4 -18 -2 -9 14 5 10 19 19 31 19 16 0 18 -3
9 -14z"/>
<path d="M1597 1043 c-7 -39 -31 -83 -46 -83 -10 0 -29 45 -33 79 -2 14 -9 27
-17 29 -11 4 -13 -4 -7 -36 14 -88 40 -119 75 -88 17 16 18 14 17 -46 -1 -49
2 -63 14 -66 13 -2 16 9 15 60 0 35 4 91 8 126 7 51 5 62 -6 62 -9 0 -17 -15
-20 -37z"/>
<path d="M2511 1043 c1 -60 13 -124 24 -126 6 -1 24 27 42 63 l32 65 0 -77 c1
-62 4 -78 16 -78 12 0 15 15 15 78 0 42 -4 83 -9 91 -14 22 -38 6 -63 -41
l-23 -43 -3 53 c-2 37 -7 52 -18 52 -10 0 -14 -11 -13 -37z"/>
<path d="M3701 1037 c-7 -23 -11 -63 -9 -87 4 -63 32 -62 76 4 28 43 32 45 32
23 0 -39 18 -77 36 -77 12 0 14 5 8 18 -4 9 -10 50 -12 90 -4 84 -18 93 -45
29 -9 -23 -29 -55 -43 -72 l-25 -30 4 55 c2 30 8 63 12 73 5 12 3 17 -8 17 -8
0 -19 -17 -26 -43z"/>
<path d="M1036 1041 c-26 -49 -31 -105 -11 -124 40 -41 124 2 124 63 0 30 -31
70 -54 70 -9 0 -13 5 -10 10 3 6 -3 10 -14 10 -12 0 -26 -11 -35 -29z m84 -68
c0 -26 -38 -50 -64 -40 -20 8 -20 28 -1 74 l15 36 25 -23 c14 -13 25 -34 25
-47z"/>
<path d="M3356 1041 c-26 -49 -31 -105 -11 -124 40 -41 124 2 124 63 0 30 -31
70 -54 70 -9 0 -13 5 -10 10 3 6 -3 10 -14 10 -12 0 -26 -11 -35 -29z m84 -68
c0 -26 -38 -50 -64 -40 -20 8 -20 28 -1 74 l15 36 25 -23 c14 -13 25 -34 25
-47z"/>
<path d="M4966 1041 c-26 -49 -31 -105 -11 -124 40 -41 124 2 124 63 0 30 -31
70 -54 70 -9 0 -13 5 -10 10 3 6 -3 10 -14 10 -12 0 -26 -11 -35 -29z m84 -68
c0 -26 -38 -50 -64 -40 -20 8 -20 28 -1 74 l15 36 25 -23 c14 -13 25 -34 25
-47z"/>
<path d="M1675 914 c-18 -42 -19 -54 -5 -54 12 0 37 39 42 64 6 35 -21 28 -37
-10z"/>
<path d="M7656 941 c-3 -5 3 -20 13 -32 18 -22 20 -22 26 -6 11 27 -25 62 -39
38z"/>
<path d="M7736 941 c-3 -5 3 -20 13 -32 18 -22 20 -22 26 -6 11 27 -25 62 -39
38z"/>
</g>
</svg>
